<svg xmlns="http://www.w3.org/2000/svg" width="1024" height="1024"><path d="M1023 301.06c-2.4-54.41-11.2-91.81-23.8-124.23-13-34.4-33.01-65.2-59.22-90.81A252 252 0 0 0 849.36 27c-32.6-12.6-69.81-21.4-124.22-23.8C670.34.6 652.93 0 513.9 0 374.87 0 357.47.6 302.86 3c-54.41 2.4-91.82 11.2-124.22 23.8-34.41 13-65.22 33.01-90.82 59.22a252.1 252.1 0 0 0-59.01 90.62C16.2 209.24 7.4 246.44 5 300.86 2.4 355.67 1.8 373.07 1.8 512.1c0 139.03.6 156.43 3 211.05 2.4 54.4 11.2 91.8 23.8 124.22 13.01 34.4 33.21 65.21 59.22 90.81 25.6 26 56.6 46.22 90.62 59.02 32.6 12.6 69.8 21.4 124.22 23.8 54.6 2.4 72.02 3 211.04 3s156.43-.6 211.05-3c54.4-2.4 91.8-11.2 124.21-23.8A261.95 261.95 0 0 0 998.8 847.37c12.6-32.6 21.4-69.82 23.8-124.23 2.4-54.61 3-72.01 3-211.04 0-139.03-.2-156.43-2.6-211.04zm-92.22 418.08c-2.2 50.01-10.6 77.02-17.6 95.02a169.88 169.88 0 0 1-97.22 97.22c-18 7-45.2 15.4-95.02 17.6-54.01 2.4-70.21 3-206.84 3s-153.03-.6-206.84-3c-50.01-2.2-77.02-10.6-95.02-17.6-22.2-8.2-42.4-21.2-58.8-38.21-17.01-16.6-30.01-36.6-38.22-58.8-7-18.01-15.4-45.22-17.6-95.03-2.4-54-3-70.21-3-206.84s.6-153.03 3-206.84c2.2-50 10.6-77.01 17.6-95.02 8.2-22.2 21.2-42.4 38.41-58.81 16.6-17 36.6-30 58.81-38.2 18-7 45.21-15.4 95.02-17.61 54.01-2.4 70.22-3 206.84-3 136.83 0 153.03.6 206.84 3 50.01 2.2 77.02 10.6 95.02 17.6 22.2 8.2 42.4 21.2 58.81 38.2 17 16.61 30 36.62 38.21 58.82 7 18 15.4 45.2 17.6 95.02 2.4 54.01 3 70.21 3 206.84s-.6 152.63-3 206.64z"/><path d="M513.9 249.05c-145.22 0-263.05 117.82-263.05 263.05 0 145.23 117.83 263.05 263.05 263.05 145.23 0 263.06-117.82 263.06-263.05 0-145.23-117.83-263.05-263.06-263.05zm0 433.68c-94.21 0-170.63-76.4-170.63-170.63 0-94.22 76.42-170.64 170.63-170.64 94.22 0 170.63 76.42 170.63 170.64 0 94.22-76.4 170.63-170.63 170.63zM848.77 238.65a61.42 61.42 0 1 1-122.84-.02 61.42 61.42 0 0 1 122.84.02z"/></svg>